<svg xmlns="http://www.w3.org/2000/svg" xmlns:xlink="http://www.w3.org/1999/xlink" width="500" zoomAndPan="magnify" viewBox="0 0 375 374.999991" height="500" preserveAspectRatio="xMidYMid meet" version="1.0"><defs><g/></defs><g fill="#fb6321" fill-opacity="1"><g transform="translate(65.626134, 259.86298)"><g><path d="M 16.96875 -138.75 L 59.125 -138.75 L 59.125 0 L 16.96875 0 Z M 16.96875 -138.75 "/></g></g></g><g fill="#fb6321" fill-opacity="1"><g transform="translate(110.133494, 259.86298)"><g><path d="M 89.53125 -94.046875 C 87.894531 -95.085938 86.128906 -95.609375 84.234375 -95.609375 C 82.335938 -95.609375 80.375 -95.164062 78.34375 -94.28125 C 76.320312 -93.40625 74.195312 -92.179688 71.96875 -90.609375 C 67.332031 -87.273438 63.050781 -82.828125 59.125 -77.265625 L 59.125 0 L 16.96875 0 L 16.96875 -104.734375 L 59.125 -104.734375 L 59.125 -87.953125 C 70.3125 -100.316406 82.960938 -106.5 97.078125 -106.5 C 120.160156 -106.5 131.703125 -95.316406 131.703125 -72.953125 L 131.703125 0 L 89.53125 0 Z M 89.53125 -94.046875 "/></g></g></g><g fill="#fb6321" fill-opacity="1"><g transform="translate(227.205927, 259.86298)"><g/></g></g><g fill="#fb6321" fill-opacity="1"><g transform="translate(242.196963, 259.86298)"><g><path d="M 10.984375 -10.6875 C 10.003906 -13.300781 9.515625 -16.046875 9.515625 -18.921875 C 9.515625 -21.796875 10.082031 -24.425781 11.21875 -26.8125 C 12.363281 -29.207031 13.984375 -31.316406 16.078125 -33.140625 C 20.523438 -37.128906 26.082031 -39.125 32.75 -39.125 C 39.613281 -39.125 45.171875 -36.867188 49.421875 -32.359375 C 53.347656 -28.242188 55.3125 -23.40625 55.3125 -17.84375 C 55.3125 -12.289062 53.085938 -7.648438 48.640625 -3.921875 C 44.066406 -0.0664062 38.570312 1.859375 32.15625 1.859375 C 21.3125 1.859375 14.253906 -2.320312 10.984375 -10.6875 Z M 10.984375 -10.6875 "/></g></g></g><g fill="#fb6321" fill-opacity="1"><g transform="translate(107.805749, 161.44195)"><g><path d="M 7.96875 -53.09375 C 7.96875 -60.957031 9.390625 -68.117188 12.234375 -74.578125 C 15.085938 -81.035156 19.003906 -86.65625 23.984375 -91.4375 C 34.734375 -101.664062 48.238281 -106.78125 64.5 -106.78125 C 81.082031 -106.78125 94.582031 -101.46875 105 -90.84375 C 114.96875 -80.820312 119.953125 -68.140625 119.953125 -52.796875 C 119.953125 -37.390625 114.835938 -24.507812 104.609375 -14.15625 C 94.054688 -3.46875 80.554688 1.875 64.109375 1.875 C 48.046875 1.875 34.738281 -3.207031 24.1875 -13.375 C 13.375 -23.863281 7.96875 -37.101562 7.96875 -53.09375 Z M 61.359375 -5.5 C 61.878906 -5.4375 62.398438 -5.40625 62.921875 -5.40625 L 64.296875 -5.40625 C 77.535156 -5.40625 88.644531 -9.503906 97.625 -17.703125 C 107.195312 -26.546875 111.984375 -38.144531 111.984375 -52.5 C 111.984375 -66.53125 107.492188 -77.90625 98.515625 -86.625 C 89.671875 -95.269531 78.234375 -99.59375 64.203125 -99.59375 L 62.734375 -99.59375 C 62.273438 -99.59375 61.816406 -99.5625 61.359375 -99.5 Z M 61.359375 -5.5 "/></g></g></g><g fill="#fb6321" fill-opacity="1"><g transform="translate(76.376154, 326.01619)"><g><path d="M 5.921875 -41.21875 L 17.21875 -41.21875 C 22.34375 -41.21875 26.585938 -40.195312 29.953125 -38.15625 C 33.316406 -36.125 35.765625 -33.503906 37.296875 -30.296875 C 38.835938 -27.085938 39.609375 -23.695312 39.609375 -20.125 C 39.609375 -16.132812 38.675781 -12.609375 36.8125 -9.546875 C 34.957031 -6.484375 32.472656 -4.125 29.359375 -2.46875 C 26.242188 -0.820312 22.859375 0 19.203125 0 L 5.921875 0 Z M 18.125 -5.359375 C 21.164062 -5.359375 23.882812 -5.957031 26.28125 -7.15625 C 28.675781 -8.351562 30.546875 -10.085938 31.890625 -12.359375 C 33.242188 -14.640625 33.921875 -17.359375 33.921875 -20.515625 C 33.921875 -23.742188 33.21875 -26.515625 31.8125 -28.828125 C 30.40625 -31.148438 28.53125 -32.910156 26.1875 -34.109375 C 23.851562 -35.304688 21.335938 -35.90625 18.640625 -35.90625 L 11.453125 -35.90625 L 11.453125 -5.359375 Z M 18.125 -5.359375 "/></g></g></g><g fill="#fb6321" fill-opacity="1"><g transform="translate(144.197145, 326.01619)"><g><path d="M 32.71875 -41.21875 L 32.71875 -35.90625 L 11.453125 -35.90625 L 11.453125 -23.375 L 30.4375 -23.375 L 30.4375 -18.0625 L 11.453125 -18.0625 L 11.453125 -5.359375 L 33.515625 -5.359375 L 33.515625 0 L 5.921875 0 L 5.921875 -41.21875 Z M 32.71875 -41.21875 "/></g></g></g><g fill="#fb6321" fill-opacity="1"><g transform="translate(206.262307, 326.01619)"><g><path d="M 38.703125 -41.21875 L 20.515625 1.9375 L 2.34375 -41.21875 L 8.890625 -41.21875 L 20.75 -11.515625 L 32.203125 -41.21875 Z M 38.703125 -41.21875 "/></g></g></g></svg>